<svg width="56" height="56" viewBox="0 0 56 56" fill="none" xmlns="http://www.w3.org/2000/svg">
<g clip-path="url(#clip0_40000043_10128)">
<path d="M28.502 2.34375C14.0602 2.34375 2.35156 14.0519 2.35156 28.4906C2.35156 42.9292 14.0602 54.6441 28.502 54.6441C42.9438 54.6441 54.6525 42.9365 54.6525 28.4906C54.6525 14.0446 42.9464 2.34375 28.502 2.34375ZM43.3467 11.7165L41.2643 13.9103C41.185 13.9036 41.1098 13.8875 41.0299 13.8875C39.4889 13.8875 38.2398 15.1372 38.2398 16.6782C38.2398 18.2192 39.4889 19.4683 41.0299 19.4683C42.571 19.4683 43.8196 18.2187 43.8196 16.6782C43.8196 16.4801 43.7973 16.2867 43.7584 16.1L45.6588 14.0903C48.0253 16.9079 49.7115 20.313 50.4649 24.0593C47.5633 22.6733 43.2373 21.5829 38.0962 20.9663C34.257 14.1494 29.5577 8.90353 25.309 6.31768C26.3538 6.1699 27.4188 6.08797 28.502 6.08797C34.1985 6.08797 39.394 8.21856 43.3467 11.7212V11.7165ZM39.6305 47.7483C36.3031 49.46 30.1224 44.2935 24.8791 35.8266C26.0261 35.8717 27.1912 35.8997 28.3791 35.8997C32.8145 35.8997 36.9907 35.5673 40.6452 34.9845C42.4133 41.4006 42.1816 46.4329 39.6299 47.7509V47.7483H39.6305ZM28.3791 32.3032C26.4471 32.3032 24.5716 32.2555 22.7853 32.1689C22.6832 31.9729 22.5785 31.7795 22.4779 31.584C21.2101 29.1237 20.1565 26.6861 19.3284 24.3647C22.0936 24.1303 25.1545 23.9981 28.3791 23.9981C31.1968 23.9981 33.8884 24.0982 36.3669 24.2802C36.3871 24.3212 36.4099 24.36 36.4307 24.401C37.7166 26.9003 38.7816 29.372 39.617 31.7277C36.3239 32.0943 32.4848 32.3058 28.3796 32.3058V32.3032H28.3791ZM19.2807 8.23412C22.6671 6.49294 29.007 11.871 34.3099 20.6065C32.4049 20.4743 30.4231 20.4017 28.3817 20.4017C24.793 20.4017 21.377 20.6226 18.2706 21.0161C16.4999 14.5906 16.7275 9.55168 19.2833 8.23412H19.2812H19.2807ZM39.9945 24.6193C46.2758 25.352 50.4602 26.6607 50.4602 28.154C50.4602 29.4198 47.4471 30.5506 42.7001 31.3108C41.983 29.1351 41.0797 26.8863 39.996 24.6193H39.9939H39.9945ZM14.3013 11.1612C13.6506 16.3868 15.3348 24.0733 19.1853 31.9278C11.5864 31.2724 6.30682 29.8315 6.30682 28.1566C6.30682 27.2622 7.83179 26.4289 10.4145 25.744C10.9061 26.1743 11.5413 26.445 12.2465 26.445C13.787 26.445 15.0366 25.1954 15.0366 23.6549C15.0366 22.1143 13.787 20.8642 12.2465 20.8642C11.0062 20.8642 9.96601 21.6788 9.60408 22.7988C8.4706 23.1493 7.45119 23.534 6.55675 23.9437C7.61245 18.8316 10.4093 14.3547 14.3034 11.1638L14.3013 11.1617V11.1612ZM15.1367 46.4806L18.871 42.6228C18.953 42.6295 19.0302 42.6477 19.1147 42.6477C20.6553 42.6477 21.9049 41.398 21.9049 39.8575C21.9049 38.317 20.6553 37.0674 19.1147 37.0674C17.5742 37.0674 16.3246 38.317 16.3246 39.8575C16.3246 40.0328 16.3448 40.2039 16.377 40.3698L12.5674 44.2458C9.41327 41.0548 7.21475 36.9196 6.42297 32.3058C9.78193 33.8785 14.991 35.0664 21.1422 35.5943C25.1612 42.5476 30.056 47.7914 34.3846 50.12C32.5096 50.6303 30.5387 50.9056 28.5041 50.9056C23.4952 50.9056 18.871 49.2598 15.1387 46.4811H15.1367V46.4806ZM44.6917 43.9725C44.8919 41.2684 44.5279 37.9976 43.6132 34.4292C46.4101 33.8256 48.7901 33.0634 50.5951 32.185C49.8422 36.7184 47.7302 40.7929 44.6896 43.9725H44.6917Z" fill="url(#paint0_radial_40000043_10128)"/>
<path d="M29.4458 29.9267C32.8587 29.9267 35.6261 28.8622 35.6261 27.5493C35.6261 26.2364 32.8593 25.1719 29.4458 25.1719C26.0324 25.1719 23.2656 26.2364 23.2656 27.5493C23.2656 28.8622 26.0324 29.9267 29.4458 29.9267Z" fill="url(#paint1_radial_40000043_10128)"/>
</g>
<defs>
<radialGradient id="paint0_radial_40000043_10128" cx="0" cy="0" r="1" gradientUnits="userSpaceOnUse" gradientTransform="translate(49.2543 43.9574) rotate(-179.35) scale(41.867 101.387)">
<stop offset="0.04" stop-color="#16AEFB"/>
<stop offset="0.63" stop-color="#5D45FB"/>
<stop offset="0.96" stop-color="#AB5EFF"/>
</radialGradient>
<radialGradient id="paint1_radial_40000043_10128" cx="0" cy="0" r="1" gradientUnits="userSpaceOnUse" gradientTransform="translate(49.2513 43.9645) rotate(-179.35) scale(41.867 101.387)">
<stop offset="0.04" stop-color="#16AEFB"/>
<stop offset="0.63" stop-color="#5D45FB"/>
<stop offset="0.96" stop-color="#AB5EFF"/>
</radialGradient>
<clipPath id="clip0_40000043_10128">
<rect width="56" height="56" fill="white"/>
</clipPath>
</defs>
</svg>
