<svg width="32" height="32" viewBox="0 0 32 32" fill="none" xmlns="http://www.w3.org/2000/svg">
<g clip-path="url(#clip0_40000043_10154)">
<path d="M10.6641 10.6641H21.3307V21.3307H10.6641V10.6641Z" stroke="#E6EAF0" stroke-width="1.5" stroke-linecap="round" stroke-linejoin="round"/>
<path d="M5.33594 8.0026C5.33594 7.29536 5.61689 6.61708 6.11699 6.11699C6.61708 5.61689 7.29536 5.33594 8.0026 5.33594H24.0026C24.7098 5.33594 25.3881 5.61689 25.8882 6.11699C26.3883 6.61708 26.6693 7.29536 26.6693 8.0026V24.0026C26.6693 24.7098 26.3883 25.3881 25.8882 25.8882C25.3881 26.3883 24.7098 26.6693 24.0026 26.6693H8.0026C7.29536 26.6693 6.61708 26.3883 6.11699 25.8882C5.61689 25.3881 5.33594 24.7098 5.33594 24.0026V8.0026Z" stroke="#E6EAF0" stroke-width="1.5" stroke-linecap="round" stroke-linejoin="round"/>
<path d="M21.3359 21.3359L25.7359 25.7359" stroke="#E6EAF0" stroke-width="1.5" stroke-linecap="round" stroke-linejoin="round"/>
<path d="M21.3359 10.6656L25.7359 6.26562" stroke="#E6EAF0" stroke-width="1.5" stroke-linecap="round" stroke-linejoin="round"/>
<path d="M10.6656 10.6656L6.26562 6.26562" stroke="#E6EAF0" stroke-width="1.5" stroke-linecap="round" stroke-linejoin="round"/>
<path d="M10.6656 21.3359L6.26562 25.7359" stroke="#E6EAF0" stroke-width="1.5" stroke-linecap="round" stroke-linejoin="round"/>
</g>
<defs>
<clipPath id="clip0_40000043_10154">
<rect width="32" height="32" fill="white"/>
</clipPath>
</defs>
</svg>
