<svg width="32" height="32" viewBox="0 0 32 32" fill="none" xmlns="http://www.w3.org/2000/svg">
<g clip-path="url(#clip0_40000043_10148)">
<path d="M12.0026 5.33594H16.0026L18.6693 8.0026H25.3359C26.0432 8.0026 26.7215 8.28356 27.2216 8.78365C27.7217 9.28375 28.0026 9.96203 28.0026 10.6693V20.0026C28.0026 20.7098 27.7217 21.3881 27.2216 21.8882C26.7215 22.3883 26.0432 22.6693 25.3359 22.6693H12.0026C11.2954 22.6693 10.6171 22.3883 10.117 21.8882C9.61689 21.3881 9.33594 20.7098 9.33594 20.0026V8.0026C9.33594 7.29536 9.61689 6.61708 10.117 6.11699C10.6171 5.61689 11.2954 5.33594 12.0026 5.33594Z" stroke="#E6EAF0" stroke-width="1.5" stroke-linecap="round" stroke-linejoin="round"/>
<path d="M22.6667 22.6641V25.3307C22.6667 26.038 22.3857 26.7162 21.8856 27.2163C21.3855 27.7164 20.7072 27.9974 20 27.9974H6.66667C5.95942 27.9974 5.28115 27.7164 4.78105 27.2163C4.28095 26.7162 4 26.038 4 25.3307V13.3307C4 12.6235 4.28095 11.9452 4.78105 11.4451C5.28115 10.945 5.95942 10.6641 6.66667 10.6641H9.33333" stroke="#E6EAF0" stroke-width="1.5" stroke-linecap="round" stroke-linejoin="round"/>
</g>
<defs>
<clipPath id="clip0_40000043_10148">
<rect width="32" height="32" fill="white"/>
</clipPath>
</defs>
</svg>
