<svg width="32" height="32" viewBox="0 0 32 32" fill="none" xmlns="http://www.w3.org/2000/svg">
<path d="M28.8031 12.2678L29.5531 12.2677V12.2677L28.8031 12.2678ZM28.8037 25.0676L28.0537 25.0676L28.8037 25.0676ZM3.20313 25.0676L2.45312 25.0675L3.20313 25.0676ZM25.6032 9.0679L25.6032 8.3179L25.6032 9.0679ZM13.3022 5.0993L13.9166 4.6692V4.6692L13.3022 5.0993ZM12.0046 15.008L11.6692 14.3372C11.4151 14.4642 11.2546 14.7239 11.2546 15.008H12.0046ZM16.0046 23.6747L15.6042 24.3088C15.8488 24.4633 16.1605 24.4633 16.4051 24.3088L16.0046 23.6747ZM20.0046 15.008H20.7546C20.7546 14.7239 20.5941 14.4642 20.34 14.3372L20.0046 15.008ZM13.858 14.0813L14.1934 14.7522L13.858 14.0813ZM18.1513 14.0813L17.8158 14.7522L18.1513 14.0813ZM5.03245 4.48438H10.6806V2.98438H5.03245V4.48438ZM3.95388 9.06771V5.60104H2.45388V9.06771H3.95388ZM5.03245 2.98438C3.59384 2.98438 2.45388 4.17055 2.45388 5.60104H3.95388C3.95388 4.96967 4.45128 4.48438 5.03245 4.48438V2.98438ZM28.0531 12.2678L28.0537 25.0676L29.5537 25.0675L29.5531 12.2677L28.0531 12.2678ZM25.6037 27.5177H6.40312V29.0177H25.6037V27.5177ZM3.95312 25.0676L3.95388 9.06774L2.45388 9.06767L2.45312 25.0675L3.95312 25.0676ZM25.6032 8.3179L16.0801 8.31771L16.0801 9.81771L25.6032 9.8179L25.6032 8.3179ZM12.6878 5.52939L15.4656 9.4978L16.6945 8.63761L13.9166 4.6692L12.6878 5.52939ZM28.0537 25.0676C28.0538 26.4207 26.9569 27.5177 25.6037 27.5177V29.0177C27.7853 29.0177 29.5538 27.2491 29.5537 25.0675L28.0537 25.0676ZM6.40312 27.5177C5.04998 27.5177 3.95306 26.4207 3.95312 25.0676L2.45312 25.0675C2.45302 27.2491 4.22153 29.0177 6.40312 29.0177V27.5177ZM29.5531 12.2677C29.553 10.0863 27.7846 8.31795 25.6032 8.3179L25.6032 9.8179C26.9562 9.81793 28.0531 10.9148 28.0531 12.2678L29.5531 12.2677ZM10.6806 4.48438C11.4801 4.48438 12.2293 4.87444 12.6878 5.52939L13.9166 4.6692C13.1774 3.61326 11.9696 2.98438 10.6806 2.98438V4.48438ZM13.5226 13.4105L11.6692 14.3372L12.34 15.6788L14.1934 14.7522L13.5226 13.4105ZM11.2546 15.008V19.468H12.7546V15.008H11.2546ZM11.2546 19.468C11.2546 20.3665 11.7774 21.1923 12.5007 21.9364C13.2393 22.6963 14.2969 23.4833 15.6042 24.3088L16.4051 23.0406C15.1359 22.239 14.1935 21.5259 13.5763 20.8909C12.9437 20.2401 12.7546 19.7762 12.7546 19.468H11.2546ZM16.4051 24.3088C17.6829 23.5018 18.7497 22.7961 19.4922 22.0778C20.2553 21.3396 20.7546 20.5128 20.7546 19.468H19.2546C19.2546 19.9633 19.0422 20.4262 18.4493 20.9996C17.836 21.5929 16.9028 22.2204 15.6042 23.0406L16.4051 24.3088ZM20.7546 19.468C20.7546 19.465 20.7546 19.462 20.7546 19.459C20.7546 19.456 20.7546 19.4529 20.7546 19.4499C20.7546 19.4469 20.7546 19.4438 20.7546 19.4408C20.7546 19.4378 20.7546 19.4347 20.7546 19.4317C20.7546 19.4286 20.7546 19.4256 20.7546 19.4225C20.7546 19.4195 20.7546 19.4164 20.7546 19.4133C20.7546 19.4102 20.7546 19.4072 20.7546 19.4041C20.7546 19.401 20.7546 19.3979 20.7546 19.3948C20.7546 19.3917 20.7546 19.3887 20.7546 19.3856C20.7546 19.3825 20.7546 19.3793 20.7546 19.3762C20.7546 19.3731 20.7546 19.37 20.7546 19.3669C20.7546 19.3638 20.7546 19.3606 20.7546 19.3575C20.7546 19.3544 20.7546 19.3513 20.7546 19.3481C20.7546 19.345 20.7546 19.3418 20.7546 19.3387C20.7546 19.3355 20.7546 19.3324 20.7546 19.3292C20.7546 19.3261 20.7546 19.3229 20.7546 19.3197C20.7546 19.3166 20.7546 19.3134 20.7546 19.3102C20.7546 19.307 20.7546 19.3039 20.7546 19.3007C20.7546 19.2975 20.7546 19.2943 20.7546 19.2911C20.7546 19.2879 20.7546 19.2847 20.7546 19.2815C20.7546 19.2783 20.7546 19.2751 20.7546 19.2719C20.7546 19.2686 20.7546 19.2654 20.7546 19.2622C20.7546 19.259 20.7546 19.2557 20.7546 19.2525C20.7546 19.2493 20.7546 19.246 20.7546 19.2428C20.7546 19.2396 20.7546 19.2363 20.7546 19.2331C20.7546 19.2298 20.7546 19.2266 20.7546 19.2233C20.7546 19.22 20.7546 19.2168 20.7546 19.2135C20.7546 19.2102 20.7546 19.207 20.7546 19.2037C20.7546 19.2004 20.7546 19.1971 20.7546 19.1938C20.7546 19.1906 20.7546 19.1873 20.7546 19.184C20.7546 19.1807 20.7546 19.1774 20.7546 19.1741C20.7546 19.1708 20.7546 19.1675 20.7546 19.1641C20.7546 19.1608 20.7546 19.1575 20.7546 19.1542C20.7546 19.1509 20.7546 19.1476 20.7546 19.1442C20.7546 19.1409 20.7546 19.1376 20.7546 19.1342C20.7546 19.1309 20.7546 19.1275 20.7546 19.1242C20.7546 19.1209 20.7546 19.1175 20.7546 19.1142C20.7546 19.1108 20.7546 19.1074 20.7546 19.1041C20.7546 19.1007 20.7546 19.0974 20.7546 19.094C20.7546 19.0906 20.7546 19.0872 20.7546 19.0839C20.7546 19.0805 20.7546 19.0771 20.7546 19.0737C20.7546 19.0703 20.7546 19.0669 20.7546 19.0635C20.7546 19.0602 20.7546 19.0568 20.7546 19.0534C20.7546 19.05 20.7546 19.0466 20.7546 19.0431C20.7546 19.0397 20.7546 19.0363 20.7546 19.0329C20.7546 19.0295 20.7546 19.0261 20.7546 19.0226C20.7546 19.0192 20.7546 19.0158 20.7546 19.0124C20.7546 19.0089 20.7546 19.0055 20.7546 19.0021C20.7546 18.9986 20.7546 18.9952 20.7546 18.9917C20.7546 18.9883 20.7546 18.9848 20.7546 18.9814C20.7546 18.9779 20.7546 18.9745 20.7546 18.971C20.7546 18.9675 20.7546 18.9641 20.7546 18.9606C20.7546 18.9571 20.7546 18.9537 20.7546 18.9502C20.7546 18.9467 20.7546 18.9432 20.7546 18.9397C20.7546 18.9363 20.7546 18.9328 20.7546 18.9293C20.7546 18.9258 20.7546 18.9223 20.7546 18.9188C20.7546 18.9153 20.7546 18.9118 20.7546 18.9083C20.7546 18.9048 20.7546 18.9013 20.7546 18.8978C20.7546 18.8943 20.7546 18.8908 20.7546 18.8872C20.7546 18.8837 20.7546 18.8802 20.7546 18.8767C20.7546 18.8732 20.7546 18.8696 20.7546 18.8661C20.7546 18.8626 20.7546 18.859 20.7546 18.8555C20.7546 18.852 20.7546 18.8484 20.7546 18.8449C20.7546 18.8413 20.7546 18.8378 20.7546 18.8342C20.7546 18.8307 20.7546 18.8271 20.7546 18.8236C20.7546 18.82 20.7546 18.8165 20.7546 18.8129C20.7546 18.8093 20.7546 18.8058 20.7546 18.8022C20.7546 18.7986 20.7546 18.795 20.7546 18.7915C20.7546 18.7879 20.7546 18.7843 20.7546 18.7807C20.7546 18.7772 20.7546 18.7736 20.7546 18.77C20.7546 18.7664 20.7546 18.7628 20.7546 18.7592C20.7546 18.7556 20.7546 18.752 20.7546 18.7484C20.7546 18.7448 20.7546 18.7412 20.7546 18.7376C20.7546 18.734 20.7546 18.7304 20.7546 18.7268C20.7546 18.7232 20.7546 18.7196 20.7546 18.7159C20.7546 18.7123 20.7546 18.7087 20.7546 18.7051C20.7546 18.7015 20.7546 18.6978 20.7546 18.6942C20.7546 18.6906 20.7546 18.6869 20.7546 18.6833C20.7546 18.6797 20.7546 18.676 20.7546 18.6724C20.7546 18.6688 20.7546 18.6651 20.7546 18.6615C20.7546 18.6578 20.7546 18.6542 20.7546 18.6505C20.7546 18.6469 20.7546 18.6432 20.7546 18.6396C20.7546 18.6359 20.7546 18.6323 20.7546 18.6286C20.7546 18.6249 20.7546 18.6213 20.7546 18.6176C20.7546 18.6139 20.7546 18.6103 20.7546 18.6066C20.7546 18.6029 20.7546 18.5993 20.7546 18.5956C20.7546 18.5919 20.7546 18.5882 20.7546 18.5845C20.7546 18.5809 20.7546 18.5772 20.7546 18.5735C20.7546 18.5698 20.7546 18.5661 20.7546 18.5624C20.7546 18.5587 20.7546 18.555 20.7546 18.5513C20.7546 18.5476 20.7546 18.5439 20.7546 18.5402C20.7546 18.5365 20.7546 18.5328 20.7546 18.5291C20.7546 18.5254 20.7546 18.5217 20.7546 18.518C20.7546 18.5143 20.7546 18.5106 20.7546 18.5069C20.7546 18.5032 20.7546 18.4994 20.7546 18.4957C20.7546 18.492 20.7546 18.4883 20.7546 18.4846C20.7546 18.4808 20.7546 18.4771 20.7546 18.4734C20.7546 18.4697 20.7546 18.4659 20.7546 18.4622C20.7546 18.4585 20.7546 18.4547 20.7546 18.451C20.7546 18.4473 20.7546 18.4435 20.7546 18.4398C20.7546 18.436 20.7546 18.4323 20.7546 18.4286C20.7546 18.4248 20.7546 18.4211 20.7546 18.4173C20.7546 18.4136 20.7546 18.4098 20.7546 18.4061C20.7546 18.4023 20.7546 18.3986 20.7546 18.3948C20.7546 18.391 20.7546 18.3873 20.7546 18.3835C20.7546 18.3798 20.7546 18.376 20.7546 18.3722C20.7546 18.3685 20.7546 18.3647 20.7546 18.3609C20.7546 18.3572 20.7546 18.3534 20.7546 18.3496C20.7546 18.3459 20.7546 18.3421 20.7546 18.3383C20.7546 18.3345 20.7546 18.3308 20.7546 18.327C20.7546 18.3232 20.7546 18.3194 20.7546 18.3156C20.7546 18.3119 20.7546 18.3081 20.7546 18.3043C20.7546 18.3005 20.7546 18.2967 20.7546 18.2929C20.7546 18.2892 20.7546 18.2854 20.7546 18.2816C20.7546 18.2778 20.7546 18.274 20.7546 18.2702C20.7546 18.2664 20.7546 18.2626 20.7546 18.2588C20.7546 18.255 20.7546 18.2512 20.7546 18.2474C20.7546 18.2436 20.7546 18.2398 20.7546 18.236C20.7546 18.2322 20.7546 18.2284 20.7546 18.2246C20.7546 18.2208 20.7546 18.217 20.7546 18.2132C20.7546 18.2093 20.7546 18.2055 20.7546 18.2017C20.7546 18.1979 20.7546 18.1941 20.7546 18.1903C20.7546 18.1865 20.7546 18.1826 20.7546 18.1788C20.7546 18.175 20.7546 18.1712 20.7546 18.1674C20.7546 18.1635 20.7546 18.1597 20.7546 18.1559C20.7546 18.1521 20.7546 18.1483 20.7546 18.1444C20.7546 18.1406 20.7546 18.1368 20.7546 18.1329C20.7546 18.1291 20.7546 18.1253 20.7546 18.1215C20.7546 18.1176 20.7546 18.1138 20.7546 18.11C20.7546 18.1061 20.7546 18.1023 20.7546 18.0985C20.7546 18.0946 20.7546 18.0908 20.7546 18.087C20.7546 18.0831 20.7546 18.0793 20.7546 18.0754C20.7546 18.0716 20.7546 18.0678 20.7546 18.0639C20.7546 18.0601 20.7546 18.0562 20.7546 18.0524C20.7546 18.0485 20.7546 18.0447 20.7546 18.0409C20.7546 18.037 20.7546 18.0332 20.7546 18.0293C20.7546 18.0255 20.7546 18.0216 20.7546 18.0178C20.7546 18.0139 20.7546 18.0101 20.7546 18.0062C20.7546 18.0024 20.7546 17.9985 20.7546 17.9947C20.7546 17.9908 20.7546 17.987 20.7546 17.9831C20.7546 17.9793 20.7546 17.9754 20.7546 17.9715C20.7546 17.9677 20.7546 17.9638 20.7546 17.96C20.7546 17.9561 20.7546 17.9523 20.7546 17.9484C20.7546 17.9445 20.7546 17.9407 20.7546 17.9368C20.7546 17.933 20.7546 17.9291 20.7546 17.9252C20.7546 17.9214 20.7546 17.9175 20.7546 17.9137C20.7546 17.9098 20.7546 17.9059 20.7546 17.9021C20.7546 17.8982 20.7546 17.8943 20.7546 17.8905C20.7546 17.8866 20.7546 17.8828 20.7546 17.8789C20.7546 17.875 20.7546 17.8712 20.7546 17.8673C20.7546 17.8634 20.7546 17.8596 20.7546 17.8557C20.7546 17.8518 20.7546 17.848 20.7546 17.8441C20.7546 17.8402 20.7546 17.8364 20.7546 17.8325C20.7546 17.8286 20.7546 17.8247 20.7546 17.8209C20.7546 17.817 20.7546 17.8131 20.7546 17.8093C20.7546 17.8054 20.7546 17.8015 20.7546 17.7977C20.7546 17.7938 20.7546 17.7899 20.7546 17.786C20.7546 17.7822 20.7546 17.7783 20.7546 17.7744C20.7546 17.7706 20.7546 17.7667 20.7546 17.7628C20.7546 17.7589 20.7546 17.7551 20.7546 17.7512C20.7546 17.7473 20.7546 17.7435 20.7546 17.7396C20.7546 17.7357 20.7546 17.7318 20.7546 17.728C20.7546 17.7241 20.7546 17.7202 20.7546 17.7163C20.7546 17.7125 20.7546 17.7086 20.7546 17.7047C20.7546 17.7009 20.7546 17.697 20.7546 17.6931C20.7546 17.6892 20.7546 17.6854 20.7546 17.6815C20.7546 17.6776 20.7546 17.6737 20.7546 17.6699C20.7546 17.666 20.7546 17.6621 20.7546 17.6583C20.7546 17.6544 20.7546 17.6505 20.7546 17.6466C20.7546 17.6428 20.7546 17.6389 20.7546 17.635C20.7546 17.6312 20.7546 17.6273 20.7546 17.6234C20.7546 17.6195 20.7546 17.6157 20.7546 17.6118C20.7546 17.6079 20.7546 17.6041 20.7546 17.6002C20.7546 17.5963 20.7546 17.5924 20.7546 17.5886C20.7546 17.5847 20.7546 17.5808 20.7546 17.577C20.7546 17.5731 20.7546 17.5692 20.7546 17.5654C20.7546 17.5615 20.7546 17.5576 20.7546 17.5538C20.7546 17.5499 20.7546 17.546 20.7546 17.5422C20.7546 17.5383 20.7546 17.5344 20.7546 17.5306C20.7546 17.5267 20.7546 17.5228 20.7546 17.519C20.7546 17.5151 20.7546 17.5112 20.7546 17.5074C20.7546 17.5035 20.7546 17.4996 20.7546 17.4958C20.7546 17.4919 20.7546 17.488 20.7546 17.4842C20.7546 17.4803 20.7546 17.4765 20.7546 17.4726C20.7546 17.4687 20.7546 17.4649 20.7546 17.461C20.7546 17.4572 20.7546 17.4533 20.7546 17.4494C20.7546 17.4456 20.7546 17.4417 20.7546 17.4379C20.7546 17.434 20.7546 17.4302 20.7546 17.4263C20.7546 17.4225 20.7546 17.4186 20.7546 17.4147C20.7546 17.4109 20.7546 17.407 20.7546 17.4032C20.7546 17.3993 20.7546 17.3955 20.7546 17.3916C20.7546 17.3878 20.7546 17.3839 20.7546 17.3801C20.7546 17.3762 20.7546 17.3724 20.7546 17.3685C20.7546 17.3647 20.7546 17.3609 20.7546 17.357C20.7546 17.3532 20.7546 17.3493 20.7546 17.3455C20.7546 17.3416 20.7546 17.3378 20.7546 17.334C20.7546 17.3301 20.7546 17.3263 20.7546 17.3224C20.7546 17.3186 20.7546 17.3148 20.7546 17.3109C20.7546 17.3071 20.7546 17.3033 20.7546 17.2994C20.7546 17.2956 20.7546 17.2917 20.7546 17.2879C20.7546 17.2841 20.7546 17.2803 20.7546 17.2764C20.7546 17.2726 20.7546 17.2688 20.7546 17.2649C20.7546 17.2611 20.7546 17.2573 20.7546 17.2535C20.7546 17.2496 20.7546 17.2458 20.7546 17.242C20.7546 17.2382 20.7546 17.2343 20.7546 17.2305C20.7546 17.2267 20.7546 17.2229 20.7546 17.2191C20.7546 17.2153 20.7546 17.2114 20.7546 17.2076C20.7546 17.2038 20.7546 17.2 20.7546 17.1962C20.7546 17.1924 20.7546 17.1886 20.7546 17.1848C20.7546 17.1809 20.7546 17.1771 20.7546 17.1733C20.7546 17.1695 20.7546 17.1657 20.7546 17.1619C20.7546 17.1581 20.7546 17.1543 20.7546 17.1505C20.7546 17.1467 20.7546 17.1429 20.7546 17.1391C20.7546 17.1353 20.7546 17.1315 20.7546 17.1277C20.7546 17.1239 20.7546 17.1201 20.7546 17.1164C20.7546 17.1126 20.7546 17.1088 20.7546 17.105C20.7546 17.1012 20.7546 17.0974 20.7546 17.0936C20.7546 17.0898 20.7546 17.0861 20.7546 17.0823C20.7546 17.0785 20.7546 17.0747 20.7546 17.071C20.7546 17.0672 20.7546 17.0634 20.7546 17.0596C20.7546 17.0559 20.7546 17.0521 20.7546 17.0483C20.7546 17.0445 20.7546 17.0408 20.7546 17.037C20.7546 17.0332 20.7546 17.0295 20.7546 17.0257C20.7546 17.0219 20.7546 17.0182 20.7546 17.0144C20.7546 17.0107 20.7546 17.0069 20.7546 17.0032C20.7546 16.9994 20.7546 16.9957 20.7546 16.9919C20.7546 16.9882 20.7546 16.9844 20.7546 16.9807C20.7546 16.9769 20.7546 16.9732 20.7546 16.9694C20.7546 16.9657 20.7546 16.9619 20.7546 16.9582C20.7546 16.9545 20.7546 16.9507 20.7546 16.947C20.7546 16.9433 20.7546 16.9395 20.7546 16.9358C20.7546 16.9321 20.7546 16.9283 20.7546 16.9246C20.7546 16.9209 20.7546 16.9172 20.7546 16.9134C20.7546 16.9097 20.7546 16.906 20.7546 16.9023C20.7546 16.8986 20.7546 16.8948 20.7546 16.8911C20.7546 16.8874 20.7546 16.8837 20.7546 16.88C20.7546 16.8763 20.7546 16.8726 20.7546 16.8689C20.7546 16.8652 20.7546 16.8615 20.7546 16.8578C20.7546 16.8541 20.7546 16.8504 20.7546 16.8467C20.7546 16.843 20.7546 16.8393 20.7546 16.8356C20.7546 16.8319 20.7546 16.8282 20.7546 16.8246C20.7546 16.8209 20.7546 16.8172 20.7546 16.8135C20.7546 16.8098 20.7546 16.8062 20.7546 16.8025C20.7546 16.7988 20.7546 16.7951 20.7546 16.7915C20.7546 16.7878 20.7546 16.7841 20.7546 16.7805C20.7546 16.7768 20.7546 16.7731 20.7546 16.7695C20.7546 16.7658 20.7546 16.7622 20.7546 16.7585C20.7546 16.7549 20.7546 16.7512 20.7546 16.7476C20.7546 16.7439 20.7546 16.7403 20.7546 16.7366C20.7546 16.733 20.7546 16.7293 20.7546 16.7257C20.7546 16.7221 20.7546 16.7184 20.7546 16.7148C20.7546 16.7112 20.7546 16.7075 20.7546 16.7039C20.7546 16.7003 20.7546 16.6967 20.7546 16.693C20.7546 16.6894 20.7546 16.6858 20.7546 16.6822C20.7546 16.6786 20.7546 16.6749 20.7546 16.6713C20.7546 16.6677 20.7546 16.6641 20.7546 16.6605C20.7546 16.6569 20.7546 16.6533 20.7546 16.6497C20.7546 16.6461 20.7546 16.6425 20.7546 16.6389C20.7546 16.6353 20.7546 16.6318 20.7546 16.6282C20.7546 16.6246 20.7546 16.621 20.7546 16.6174C20.7546 16.6138 20.7546 16.6103 20.7546 16.6067C20.7546 16.6031 20.7546 16.5995 20.7546 16.596C20.7546 16.5924 20.7546 16.5888 20.7546 16.5853C20.7546 16.5817 20.7546 16.5782 20.7546 16.5746C20.7546 16.5711 20.7546 16.5675 20.7546 16.564C20.7546 16.5604 20.7546 16.5569 20.7546 16.5533C20.7546 16.5498 20.7546 16.5462 20.7546 16.5427C20.7546 16.5392 20.7546 16.5356 20.7546 16.5321C20.7546 16.5286 20.7546 16.5251 20.7546 16.5215C20.7546 16.518 20.7546 16.5145 20.7546 16.511C20.7546 16.5075 20.7546 16.504 20.7546 16.5005C20.7546 16.4969 20.7546 16.4934 20.7546 16.4899C20.7546 16.4864 20.7546 16.4829 20.7546 16.4794C20.7546 16.476 20.7546 16.4725 20.7546 16.469C20.7546 16.4655 20.7546 16.462 20.7546 16.4585C20.7546 16.455 20.7546 16.4516 20.7546 16.4481C20.7546 16.4446 20.7546 16.4411 20.7546 16.4377C20.7546 16.4342 20.7546 16.4308 20.7546 16.4273C20.7546 16.4238 20.7546 16.4204 20.7546 16.4169C20.7546 16.4135 20.7546 16.41 20.7546 16.4066C20.7546 16.4031 20.7546 16.3997 20.7546 16.3963C20.7546 16.3928 20.7546 16.3894 20.7546 16.386C20.7546 16.3825 20.7546 16.3791 20.7546 16.3757C20.7546 16.3723 20.7546 16.3688 20.7546 16.3654C20.7546 16.362 20.7546 16.3586 20.7546 16.3552C20.7546 16.3518 20.7546 16.3484 20.7546 16.345C20.7546 16.3416 20.7546 16.3382 20.7546 16.3348C20.7546 16.3314 20.7546 16.328 20.7546 16.3247C20.7546 16.3213 20.7546 16.3179 20.7546 16.3145C20.7546 16.3111 20.7546 16.3078 20.7546 16.3044C20.7546 16.301 20.7546 16.2977 20.7546 16.2943C20.7546 16.291 20.7546 16.2876 20.7546 16.2843C20.7546 16.2809 20.7546 16.2776 20.7546 16.2742C20.7546 16.2709 20.7546 16.2675 20.7546 16.2642C20.7546 16.2609 20.7546 16.2575 20.7546 16.2542C20.7546 16.2509 20.7546 16.2476 20.7546 16.2442C20.7546 16.2409 20.7546 16.2376 20.7546 16.2343C20.7546 16.231 20.7546 16.2277 20.7546 16.2244C20.7546 16.2211 20.7546 16.2178 20.7546 16.2145C20.7546 16.2112 20.7546 16.2079 20.7546 16.2046C20.7546 16.2014 20.7546 16.1981 20.7546 16.1948C20.7546 16.1915 20.7546 16.1883 20.7546 16.185C20.7546 16.1817 20.7546 16.1785 20.7546 16.1752C20.7546 16.172 20.7546 16.1687 20.7546 16.1655C20.7546 16.1622 20.7546 16.159 20.7546 16.1557C20.7546 16.1525 20.7546 16.1493 20.7546 16.146C20.7546 16.1428 20.7546 16.1396 20.7546 16.1364C20.7546 16.1331 20.7546 16.1299 20.7546 16.1267C20.7546 16.1235 20.7546 16.1203 20.7546 16.1171C20.7546 16.1139 20.7546 16.1107 20.7546 16.1075C20.7546 16.1043 20.7546 16.1011 20.7546 16.0979C20.7546 16.0947 20.7546 16.0916 20.7546 16.0884C20.7546 16.0852 20.7546 16.082 20.7546 16.0789C20.7546 16.0757 20.7546 16.0726 20.7546 16.0694C20.7546 16.0662 20.7546 16.0631 20.7546 16.06C20.7546 16.0568 20.7546 16.0537 20.7546 16.0505C20.7546 16.0474 20.7546 16.0443 20.7546 16.0411C20.7546 16.038 20.7546 16.0349 20.7546 16.0318C20.7546 16.0287 20.7546 16.0255 20.7546 16.0224C20.7546 16.0193 20.7546 16.0162 20.7546 16.0131C20.7546 16.01 20.7546 16.0069 20.7546 16.0039C20.7546 16.0008 20.7546 15.9977 20.7546 15.9946C20.7546 15.9915 20.7546 15.9885 20.7546 15.9854C20.7546 15.9823 20.7546 15.9793 20.7546 15.9762C20.7546 15.9732 20.7546 15.9701 20.7546 15.9671C20.7546 15.964 20.7546 15.961 20.7546 15.9579C20.7546 15.9549 20.7546 15.9519 20.7546 15.9489C20.7546 15.9458 20.7546 15.9428 20.7546 15.9398C20.7546 15.9368 20.7546 15.9338 20.7546 15.9308C20.7546 15.9278 20.7546 15.9248 20.7546 15.9218C20.7546 15.9188 20.7546 15.9158 20.7546 15.9128C20.7546 15.9098 20.7546 15.9069 20.7546 15.9039C20.7546 15.9009 20.7546 15.8979 20.7546 15.895C20.7546 15.892 20.7546 15.8891 20.7546 15.8861C20.7546 15.8832 20.7546 15.8802 20.7546 15.8773C20.7546 15.8743 20.7546 15.8714 20.7546 15.8685C20.7546 15.8655 20.7546 15.8626 20.7546 15.8597C20.7546 15.8568 20.7546 15.8539 20.7546 15.851C20.7546 15.8481 20.7546 15.8452 20.7546 15.8423C20.7546 15.8394 20.7546 15.8365 20.7546 15.8336C20.7546 15.8307 20.7546 15.8278 20.7546 15.825C20.7546 15.8221 20.7546 15.8192 20.7546 15.8164C20.7546 15.8135 20.7546 15.8106 20.7546 15.8078C20.7546 15.8049 20.7546 15.8021 20.7546 15.7993C20.7546 15.7964 20.7546 15.7936 20.7546 15.7908C20.7546 15.7879 20.7546 15.7851 20.7546 15.7823C20.7546 15.7795 20.7546 15.7767 20.7546 15.7739C20.7546 15.7711 20.7546 15.7683 20.7546 15.7655C20.7546 15.7627 20.7546 15.7599 20.7546 15.7571C20.7546 15.7543 20.7546 15.7516 20.7546 15.7488C20.7546 15.746 20.7546 15.7433 20.7546 15.7405C20.7546 15.7378 20.7546 15.735 20.7546 15.7323C20.7546 15.7295 20.7546 15.7268 20.7546 15.724C20.7546 15.7213 20.7546 15.7186 20.7546 15.7159C20.7546 15.7131 20.7546 15.7104 20.7546 15.7077C20.7546 15.705 20.7546 15.7023 20.7546 15.6996C20.7546 15.6969 20.7546 15.6942 20.7546 15.6916C20.7546 15.6889 20.7546 15.6862 20.7546 15.6835C20.7546 15.6809 20.7546 15.6782 20.7546 15.6755C20.7546 15.6729 20.7546 15.6702 20.7546 15.6676C20.7546 15.6649 20.7546 15.6623 20.7546 15.6597C20.7546 15.657 20.7546 15.6544 20.7546 15.6518C20.7546 15.6491 20.7546 15.6465 20.7546 15.6439C20.7546 15.6413 20.7546 15.6387 20.7546 15.6361C20.7546 15.6335 20.7546 15.6309 20.7546 15.6284C20.7546 15.6258 20.7546 15.6232 20.7546 15.6206C20.7546 15.6181 20.7546 15.6155 20.7546 15.6129C20.7546 15.6104 20.7546 15.6078 20.7546 15.6053C20.7546 15.6027 20.7546 15.6002 20.7546 15.5977C20.7546 15.5951 20.7546 15.5926 20.7546 15.5901C20.7546 15.5876 20.7546 15.5851 20.7546 15.5826C20.7546 15.5801 20.7546 15.5776 20.7546 15.5751C20.7546 15.5726 20.7546 15.5701 20.7546 15.5676C20.7546 15.5651 20.7546 15.5627 20.7546 15.5602C20.7546 15.5577 20.7546 15.5553 20.7546 15.5528C20.7546 15.5504 20.7546 15.5479 20.7546 15.5455C20.7546 15.5431 20.7546 15.5406 20.7546 15.5382C20.7546 15.5358 20.7546 15.5334 20.7546 15.531C20.7546 15.5286 20.7546 15.5262 20.7546 15.5238C20.7546 15.5214 20.7546 15.519 20.7546 15.5166C20.7546 15.5142 20.7546 15.5118 20.7546 15.5095C20.7546 15.5071 20.7546 15.5047 20.7546 15.5024C20.7546 15.5 20.7546 15.4977 20.7546 15.4953C20.7546 15.493 20.7546 15.4907 20.7546 15.4883C20.7546 15.486 20.7546 15.4837 20.7546 15.4814C20.7546 15.4791 20.7546 15.4768 20.7546 15.4745C20.7546 15.4722 20.7546 15.4699 20.7546 15.4676C20.7546 15.4653 20.7546 15.463 20.7546 15.4608C20.7546 15.4585 20.7546 15.4562 20.7546 15.454C20.7546 15.4517 20.7546 15.4495 20.7546 15.4472C20.7546 15.445 20.7546 15.4427 20.7546 15.4405C20.7546 15.4383 20.7546 15.4361 20.7546 15.4339C20.7546 15.4316 20.7546 15.4294 20.7546 15.4272C20.7546 15.425 20.7546 15.4229 20.7546 15.4207C20.7546 15.4185 20.7546 15.4163 20.7546 15.4141C20.7546 15.412 20.7546 15.4098 20.7546 15.4077C20.7546 15.4055 20.7546 15.4034 20.7546 15.4012C20.7546 15.3991 20.7546 15.397 20.7546 15.3948C20.7546 15.3927 20.7546 15.3906 20.7546 15.3885C20.7546 15.3864 20.7546 15.3843 20.7546 15.3822C20.7546 15.3801 20.7546 15.378 20.7546 15.3759C20.7546 15.3739 20.7546 15.3718 20.7546 15.3697C20.7546 15.3677 20.7546 15.3656 20.7546 15.3636C20.7546 15.3615 20.7546 15.3595 20.7546 15.3574C20.7546 15.3554 20.7546 15.3534 20.7546 15.3514C20.7546 15.3493 20.7546 15.3473 20.7546 15.3453C20.7546 15.3433 20.7546 15.3413 20.7546 15.3394C20.7546 15.3374 20.7546 15.3354 20.7546 15.3334C20.7546 15.3314 20.7546 15.3295 20.7546 15.3275C20.7546 15.3256 20.7546 15.3236 20.7546 15.3217C20.7546 15.3197 20.7546 15.3178 20.7546 15.3159C20.7546 15.314 20.7546 15.3121 20.7546 15.3101C20.7546 15.3082 20.7546 15.3063 20.7546 15.3045C20.7546 15.3026 20.7546 15.3007 20.7546 15.2988C20.7546 15.2969 20.7546 15.2951 20.7546 15.2932C20.7546 15.2913 20.7546 15.2895 20.7546 15.2876C20.7546 15.2858 20.7546 15.284 20.7546 15.2821C20.7546 15.2803 20.7546 15.2785 20.7546 15.2767C20.7546 15.2749 20.7546 15.2731 20.7546 15.2713C20.7546 15.2695 20.7546 15.2677 20.7546 15.2659C20.7546 15.2641 20.7546 15.2624 20.7546 15.2606C20.7546 15.2588 20.7546 15.2571 20.7546 15.2553C20.7546 15.2536 20.7546 15.2519 20.7546 15.2501C20.7546 15.2484 20.7546 15.2467 20.7546 15.245C20.7546 15.2433 20.7546 15.2415 20.7546 15.2399C20.7546 15.2382 20.7546 15.2365 20.7546 15.2348C20.7546 15.2331 20.7546 15.2314 20.7546 15.2298C20.7546 15.2281 20.7546 15.2265 20.7546 15.2248C20.7546 15.2232 20.7546 15.2215 20.7546 15.2199C20.7546 15.2183 20.7546 15.2167 20.7546 15.215C20.7546 15.2134 20.7546 15.2118 20.7546 15.2102C20.7546 15.2086 20.7546 15.2071 20.7546 15.2055C20.7546 15.2039 20.7546 15.2023 20.7546 15.2008C20.7546 15.1992 20.7546 15.1977 20.7546 15.1961C20.7546 15.1946 20.7546 15.193 20.7546 15.1915C20.7546 15.19 20.7546 15.1885 20.7546 15.187C20.7546 15.1855 20.7546 15.184 20.7546 15.1825C20.7546 15.181 20.7546 15.1795 20.7546 15.178C20.7546 15.1766 20.7546 15.1751 20.7546 15.1736C20.7546 15.1722 20.7546 15.1707 20.7546 15.1693C20.7546 15.1679 20.7546 15.1664 20.7546 15.165C20.7546 15.1636 20.7546 15.1622 20.7546 15.1608C20.7546 15.1594 20.7546 15.158 20.7546 15.1566C20.7546 15.1552 20.7546 15.1538 20.7546 15.1525C20.7546 15.1511 20.7546 15.1497 20.7546 15.1484C20.7546 15.147 20.7546 15.1457 20.7546 15.1444C20.7546 15.143 20.7546 15.1417 20.7546 15.1404C20.7546 15.1391 20.7546 15.1378 20.7546 15.1365C20.7546 15.1352 20.7546 15.1339 20.7546 15.1326C20.7546 15.1314 20.7546 15.1301 20.7546 15.1288C20.7546 15.1276 20.7546 15.1263 20.7546 15.1251C20.7546 15.1239 20.7546 15.1226 20.7546 15.1214C20.7546 15.1202 20.7546 15.119 20.7546 15.1178C20.7546 15.1166 20.7546 15.1154 20.7546 15.1142C20.7546 15.113 20.7546 15.1118 20.7546 15.1107C20.7546 15.1095 20.7546 15.1083 20.7546 15.1072C20.7546 15.106 20.7546 15.1049 20.7546 15.1038C20.7546 15.1026 20.7546 15.1015 20.7546 15.1004C20.7546 15.0993 20.7546 15.0982 20.7546 15.0971C20.7546 15.096 20.7546 15.0949 20.7546 15.0939C20.7546 15.0928 20.7546 15.0917 20.7546 15.0907C20.7546 15.0896 20.7546 15.0886 20.7546 15.0876C20.7546 15.0865 20.7546 15.0855 20.7546 15.0845C20.7546 15.0835 20.7546 15.0825 20.7546 15.0815C20.7546 15.0805 20.7546 15.0795 20.7546 15.0785C20.7546 15.0775 20.7546 15.0766 20.7546 15.0756C20.7546 15.0747 20.7546 15.0737 20.7546 15.0728C20.7546 15.0718 20.7546 15.0709 20.7546 15.07C20.7546 15.0691 20.7546 15.0682 20.7546 15.0673C20.7546 15.0664 20.7546 15.0655 20.7546 15.0646C20.7546 15.0637 20.7546 15.0628 20.7546 15.062C20.7546 15.0611 20.7546 15.0603 20.7546 15.0594C20.7546 15.0586 20.7546 15.0578 20.7546 15.0569C20.7546 15.0561 20.7546 15.0553 20.7546 15.0545C20.7546 15.0537 20.7546 15.0529 20.7546 15.0521C20.7546 15.0514 20.7546 15.0506 20.7546 15.0498C20.7546 15.0491 20.7546 15.0483 20.7546 15.0476C20.7546 15.0468 20.7546 15.0461 20.7546 15.0454C20.7546 15.0447 20.7546 15.044 20.7546 15.0433C20.7546 15.0426 20.7546 15.0419 20.7546 15.0412C20.7546 15.0405 20.7546 15.0398 20.7546 15.0392C20.7546 15.0385 20.7546 15.0379 20.7546 15.0372C20.7546 15.0366 20.7546 15.036 20.7546 15.0353C20.7546 15.0347 20.7546 15.0341 20.7546 15.0335C20.7546 15.0329 20.7546 15.0323 20.7546 15.0317C20.7546 15.0312 20.7546 15.0306 20.7546 15.03C20.7546 15.0295 20.7546 15.0289 20.7546 15.0284C20.7546 15.0279 20.7546 15.0273 20.7546 15.0268C20.7546 15.0263 20.7546 15.0258 20.7546 15.0253C20.7546 15.0248 20.7546 15.0243 20.7546 15.0239C20.7546 15.0234 20.7546 15.0229 20.7546 15.0225C20.7546 15.022 20.7546 15.0216 20.7546 15.0211C20.7546 15.0207 20.7546 15.0203 20.7546 15.0199C20.7546 15.0195 20.7546 15.0191 20.7546 15.0187C20.7546 15.0183 20.7546 15.0179 20.7546 15.0175C20.7546 15.0171 20.7546 15.0168 20.7546 15.0164C20.7546 15.0161 20.7546 15.0158 20.7546 15.0154C20.7546 15.0151 20.7546 15.0148 20.7546 15.0145C20.7546 15.0142 20.7546 15.0139 20.7546 15.0136C20.7546 15.0133 20.7546 15.013 20.7546 15.0128C20.7546 15.0125 20.7546 15.0123 20.7546 15.012C20.7546 15.0118 20.7546 15.0115 20.7546 15.0113C20.7546 15.0111 20.7546 15.0109 20.7546 15.0107C20.7546 15.0105 20.7546 15.0103 20.7546 15.0101C20.7546 15.01 20.7546 15.0098 20.7546 15.0096C20.7546 15.0095 20.7546 15.0093 20.7546 15.0092C20.7546 15.0091 20.7546 15.009 20.7546 15.0089C20.7546 15.0087 20.7546 15.0086 20.7546 15.0086C20.7546 15.0085 20.7546 15.0084 20.7546 15.0083C20.7546 15.0083 20.7546 15.0082 20.7546 15.0082C20.7546 15.0081 20.7546 15.0081 20.7546 15.0081C20.7546 15.008 20.7546 15.008 20.0046 15.008C19.2546 15.008 19.2546 15.008 19.2546 15.0081C19.2546 15.0081 19.2546 15.0081 19.2546 15.0082C19.2546 15.0082 19.2546 15.0083 19.2546 15.0083C19.2546 15.0084 19.2546 15.0085 19.2546 15.0086C19.2546 15.0086 19.2546 15.0087 19.2546 15.0089C19.2546 15.009 19.2546 15.0091 19.2546 15.0092C19.2546 15.0093 19.2546 15.0095 19.2546 15.0096C19.2546 15.0098 19.2546 15.01 19.2546 15.0101C19.2546 15.0103 19.2546 15.0105 19.2546 15.0107C19.2546 15.0109 19.2546 15.0111 19.2546 15.0113C19.2546 15.0115 19.2546 15.0118 19.2546 15.012C19.2546 15.0123 19.2546 15.0125 19.2546 15.0128C19.2546 15.013 19.2546 15.0133 19.2546 15.0136C19.2546 15.0139 19.2546 15.0142 19.2546 15.0145C19.2546 15.0148 19.2546 15.0151 19.2546 15.0154C19.2546 15.0158 19.2546 15.0161 19.2546 15.0164C19.2546 15.0168 19.2546 15.0171 19.2546 15.0175C19.2546 15.0179 19.2546 15.0183 19.2546 15.0187C19.2546 15.0191 19.2546 15.0195 19.2546 15.0199C19.2546 15.0203 19.2546 15.0207 19.2546 15.0211C19.2546 15.0216 19.2546 15.022 19.2546 15.0225C19.2546 15.0229 19.2546 15.0234 19.2546 15.0239C19.2546 15.0243 19.2546 15.0248 19.2546 15.0253C19.2546 15.0258 19.2546 15.0263 19.2546 15.0268C19.2546 15.0273 19.2546 15.0279 19.2546 15.0284C19.2546 15.0289 19.2546 15.0295 19.2546 15.03C19.2546 15.0306 19.2546 15.0312 19.2546 15.0317C19.2546 15.0323 19.2546 15.0329 19.2546 15.0335C19.2546 15.0341 19.2546 15.0347 19.2546 15.0353C19.2546 15.036 19.2546 15.0366 19.2546 15.0372C19.2546 15.0379 19.2546 15.0385 19.2546 15.0392C19.2546 15.0398 19.2546 15.0405 19.2546 15.0412C19.2546 15.0419 19.2546 15.0426 19.2546 15.0433C19.2546 15.044 19.2546 15.0447 19.2546 15.0454C19.2546 15.0461 19.2546 15.0468 19.2546 15.0476C19.2546 15.0483 19.2546 15.0491 19.2546 15.0498C19.2546 15.0506 19.2546 15.0514 19.2546 15.0521C19.2546 15.0529 19.2546 15.0537 19.2546 15.0545C19.2546 15.0553 19.2546 15.0561 19.2546 15.0569C19.2546 15.0578 19.2546 15.0586 19.2546 15.0594C19.2546 15.0603 19.2546 15.0611 19.2546 15.062C19.2546 15.0628 19.2546 15.0637 19.2546 15.0646C19.2546 15.0655 19.2546 15.0664 19.2546 15.0673C19.2546 15.0682 19.2546 15.0691 19.2546 15.07C19.2546 15.0709 19.2546 15.0718 19.2546 15.0728C19.2546 15.0737 19.2546 15.0747 19.2546 15.0756C19.2546 15.0766 19.2546 15.0775 19.2546 15.0785C19.2546 15.0795 19.2546 15.0805 19.2546 15.0815C19.2546 15.0825 19.2546 15.0835 19.2546 15.0845C19.2546 15.0855 19.2546 15.0865 19.2546 15.0876C19.2546 15.0886 19.2546 15.0896 19.2546 15.0907C19.2546 15.0917 19.2546 15.0928 19.2546 15.0939C19.2546 15.0949 19.2546 15.096 19.2546 15.0971C19.2546 15.0982 19.2546 15.0993 19.2546 15.1004C19.2546 15.1015 19.2546 15.1026 19.2546 15.1038C19.2546 15.1049 19.2546 15.106 19.2546 15.1072C19.2546 15.1083 19.2546 15.1095 19.2546 15.1107C19.2546 15.1118 19.2546 15.113 19.2546 15.1142C19.2546 15.1154 19.2546 15.1166 19.2546 15.1178C19.2546 15.119 19.2546 15.1202 19.2546 15.1214C19.2546 15.1226 19.2546 15.1239 19.2546 15.1251C19.2546 15.1263 19.2546 15.1276 19.2546 15.1288C19.2546 15.1301 19.2546 15.1314 19.2546 15.1326C19.2546 15.1339 19.2546 15.1352 19.2546 15.1365C19.2546 15.1378 19.2546 15.1391 19.2546 15.1404C19.2546 15.1417 19.2546 15.143 19.2546 15.1444C19.2546 15.1457 19.2546 15.147 19.2546 15.1484C19.2546 15.1497 19.2546 15.1511 19.2546 15.1525C19.2546 15.1538 19.2546 15.1552 19.2546 15.1566C19.2546 15.158 19.2546 15.1594 19.2546 15.1608C19.2546 15.1622 19.2546 15.1636 19.2546 15.165C19.2546 15.1664 19.2546 15.1679 19.2546 15.1693C19.2546 15.1707 19.2546 15.1722 19.2546 15.1736C19.2546 15.1751 19.2546 15.1766 19.2546 15.178C19.2546 15.1795 19.2546 15.181 19.2546 15.1825C19.2546 15.184 19.2546 15.1855 19.2546 15.187C19.2546 15.1885 19.2546 15.19 19.2546 15.1915C19.2546 15.193 19.2546 15.1946 19.2546 15.1961C19.2546 15.1977 19.2546 15.1992 19.2546 15.2008C19.2546 15.2023 19.2546 15.2039 19.2546 15.2055C19.2546 15.2071 19.2546 15.2086 19.2546 15.2102C19.2546 15.2118 19.2546 15.2134 19.2546 15.215C19.2546 15.2167 19.2546 15.2183 19.2546 15.2199C19.2546 15.2215 19.2546 15.2232 19.2546 15.2248C19.2546 15.2265 19.2546 15.2281 19.2546 15.2298C19.2546 15.2314 19.2546 15.2331 19.2546 15.2348C19.2546 15.2365 19.2546 15.2382 19.2546 15.2399C19.2546 15.2415 19.2546 15.2433 19.2546 15.245C19.2546 15.2467 19.2546 15.2484 19.2546 15.2501C19.2546 15.2519 19.2546 15.2536 19.2546 15.2553C19.2546 15.2571 19.2546 15.2588 19.2546 15.2606C19.2546 15.2624 19.2546 15.2641 19.2546 15.2659C19.2546 15.2677 19.2546 15.2695 19.2546 15.2713C19.2546 15.2731 19.2546 15.2749 19.2546 15.2767C19.2546 15.2785 19.2546 15.2803 19.2546 15.2821C19.2546 15.284 19.2546 15.2858 19.2546 15.2876C19.2546 15.2895 19.2546 15.2913 19.2546 15.2932C19.2546 15.2951 19.2546 15.2969 19.2546 15.2988C19.2546 15.3007 19.2546 15.3026 19.2546 15.3045C19.2546 15.3063 19.2546 15.3082 19.2546 15.3101C19.2546 15.3121 19.2546 15.314 19.2546 15.3159C19.2546 15.3178 19.2546 15.3197 19.2546 15.3217C19.2546 15.3236 19.2546 15.3256 19.2546 15.3275C19.2546 15.3295 19.2546 15.3314 19.2546 15.3334C19.2546 15.3354 19.2546 15.3374 19.2546 15.3394C19.2546 15.3413 19.2546 15.3433 19.2546 15.3453C19.2546 15.3473 19.2546 15.3493 19.2546 15.3514C19.2546 15.3534 19.2546 15.3554 19.2546 15.3574C19.2546 15.3595 19.2546 15.3615 19.2546 15.3636C19.2546 15.3656 19.2546 15.3677 19.2546 15.3697C19.2546 15.3718 19.2546 15.3739 19.2546 15.3759C19.2546 15.378 19.2546 15.3801 19.2546 15.3822C19.2546 15.3843 19.2546 15.3864 19.2546 15.3885C19.2546 15.3906 19.2546 15.3927 19.2546 15.3948C19.2546 15.397 19.2546 15.3991 19.2546 15.4012C19.2546 15.4034 19.2546 15.4055 19.2546 15.4077C19.2546 15.4098 19.2546 15.412 19.2546 15.4141C19.2546 15.4163 19.2546 15.4185 19.2546 15.4207C19.2546 15.4229 19.2546 15.425 19.2546 15.4272C19.2546 15.4294 19.2546 15.4316 19.2546 15.4339C19.2546 15.4361 19.2546 15.4383 19.2546 15.4405C19.2546 15.4427 19.2546 15.445 19.2546 15.4472C19.2546 15.4495 19.2546 15.4517 19.2546 15.454C19.2546 15.4562 19.2546 15.4585 19.2546 15.4608C19.2546 15.463 19.2546 15.4653 19.2546 15.4676C19.2546 15.4699 19.2546 15.4722 19.2546 15.4745C19.2546 15.4768 19.2546 15.4791 19.2546 15.4814C19.2546 15.4837 19.2546 15.486 19.2546 15.4883C19.2546 15.4907 19.2546 15.493 19.2546 15.4953C19.2546 15.4977 19.2546 15.5 19.2546 15.5024C19.2546 15.5047 19.2546 15.5071 19.2546 15.5095C19.2546 15.5118 19.2546 15.5142 19.2546 15.5166C19.2546 15.519 19.2546 15.5214 19.2546 15.5238C19.2546 15.5262 19.2546 15.5286 19.2546 15.531C19.2546 15.5334 19.2546 15.5358 19.2546 15.5382C19.2546 15.5406 19.2546 15.5431 19.2546 15.5455C19.2546 15.5479 19.2546 15.5504 19.2546 15.5528C19.2546 15.5553 19.2546 15.5577 19.2546 15.5602C19.2546 15.5627 19.2546 15.5651 19.2546 15.5676C19.2546 15.5701 19.2546 15.5726 19.2546 15.5751C19.2546 15.5776 19.2546 15.5801 19.2546 15.5826C19.2546 15.5851 19.2546 15.5876 19.2546 15.5901C19.2546 15.5926 19.2546 15.5951 19.2546 15.5977C19.2546 15.6002 19.2546 15.6027 19.2546 15.6053C19.2546 15.6078 19.2546 15.6104 19.2546 15.6129C19.2546 15.6155 19.2546 15.6181 19.2546 15.6206C19.2546 15.6232 19.2546 15.6258 19.2546 15.6284C19.2546 15.6309 19.2546 15.6335 19.2546 15.6361C19.2546 15.6387 19.2546 15.6413 19.2546 15.6439C19.2546 15.6465 19.2546 15.6491 19.2546 15.6518C19.2546 15.6544 19.2546 15.657 19.2546 15.6597C19.2546 15.6623 19.2546 15.6649 19.2546 15.6676C19.2546 15.6702 19.2546 15.6729 19.2546 15.6755C19.2546 15.6782 19.2546 15.6809 19.2546 15.6835C19.2546 15.6862 19.2546 15.6889 19.2546 15.6916C19.2546 15.6942 19.2546 15.6969 19.2546 15.6996C19.2546 15.7023 19.2546 15.705 19.2546 15.7077C19.2546 15.7104 19.2546 15.7131 19.2546 15.7159C19.2546 15.7186 19.2546 15.7213 19.2546 15.724C19.2546 15.7268 19.2546 15.7295 19.2546 15.7323C19.2546 15.735 19.2546 15.7378 19.2546 15.7405C19.2546 15.7433 19.2546 15.746 19.2546 15.7488C19.2546 15.7516 19.2546 15.7543 19.2546 15.7571C19.2546 15.7599 19.2546 15.7627 19.2546 15.7655C19.2546 15.7683 19.2546 15.7711 19.2546 15.7739C19.2546 15.7767 19.2546 15.7795 19.2546 15.7823C19.2546 15.7851 19.2546 15.7879 19.2546 15.7908C19.2546 15.7936 19.2546 15.7964 19.2546 15.7993C19.2546 15.8021 19.2546 15.8049 19.2546 15.8078C19.2546 15.8106 19.2546 15.8135 19.2546 15.8164C19.2546 15.8192 19.2546 15.8221 19.2546 15.825C19.2546 15.8278 19.2546 15.8307 19.2546 15.8336C19.2546 15.8365 19.2546 15.8394 19.2546 15.8423C19.2546 15.8452 19.2546 15.8481 19.2546 15.851C19.2546 15.8539 19.2546 15.8568 19.2546 15.8597C19.2546 15.8626 19.2546 15.8655 19.2546 15.8685C19.2546 15.8714 19.2546 15.8743 19.2546 15.8773C19.2546 15.8802 19.2546 15.8832 19.2546 15.8861C19.2546 15.8891 19.2546 15.892 19.2546 15.895C19.2546 15.8979 19.2546 15.9009 19.2546 15.9039C19.2546 15.9069 19.2546 15.9098 19.2546 15.9128C19.2546 15.9158 19.2546 15.9188 19.2546 15.9218C19.2546 15.9248 19.2546 15.9278 19.2546 15.9308C19.2546 15.9338 19.2546 15.9368 19.2546 15.9398C19.2546 15.9428 19.2546 15.9458 19.2546 15.9489C19.2546 15.9519 19.2546 15.9549 19.2546 15.9579C19.2546 15.961 19.2546 15.964 19.2546 15.9671C19.2546 15.9701 19.2546 15.9732 19.2546 15.9762C19.2546 15.9793 19.2546 15.9823 19.2546 15.9854C19.2546 15.9885 19.2546 15.9915 19.2546 15.9946C19.2546 15.9977 19.2546 16.0008 19.2546 16.0039C19.2546 16.0069 19.2546 16.01 19.2546 16.0131C19.2546 16.0162 19.2546 16.0193 19.2546 16.0224C19.2546 16.0255 19.2546 16.0287 19.2546 16.0318C19.2546 16.0349 19.2546 16.038 19.2546 16.0411C19.2546 16.0443 19.2546 16.0474 19.2546 16.0505C19.2546 16.0537 19.2546 16.0568 19.2546 16.06C19.2546 16.0631 19.2546 16.0662 19.2546 16.0694C19.2546 16.0726 19.2546 16.0757 19.2546 16.0789C19.2546 16.082 19.2546 16.0852 19.2546 16.0884C19.2546 16.0916 19.2546 16.0947 19.2546 16.0979C19.2546 16.1011 19.2546 16.1043 19.2546 16.1075C19.2546 16.1107 19.2546 16.1139 19.2546 16.1171C19.2546 16.1203 19.2546 16.1235 19.2546 16.1267C19.2546 16.1299 19.2546 16.1331 19.2546 16.1364C19.2546 16.1396 19.2546 16.1428 19.2546 16.146C19.2546 16.1493 19.2546 16.1525 19.2546 16.1557C19.2546 16.159 19.2546 16.1622 19.2546 16.1655C19.2546 16.1687 19.2546 16.172 19.2546 16.1752C19.2546 16.1785 19.2546 16.1817 19.2546 16.185C19.2546 16.1883 19.2546 16.1915 19.2546 16.1948C19.2546 16.1981 19.2546 16.2014 19.2546 16.2046C19.2546 16.2079 19.2546 16.2112 19.2546 16.2145C19.2546 16.2178 19.2546 16.2211 19.2546 16.2244C19.2546 16.2277 19.2546 16.231 19.2546 16.2343C19.2546 16.2376 19.2546 16.2409 19.2546 16.2442C19.2546 16.2476 19.2546 16.2509 19.2546 16.2542C19.2546 16.2575 19.2546 16.2609 19.2546 16.2642C19.2546 16.2675 19.2546 16.2709 19.2546 16.2742C19.2546 16.2776 19.2546 16.2809 19.2546 16.2843C19.2546 16.2876 19.2546 16.291 19.2546 16.2943C19.2546 16.2977 19.2546 16.301 19.2546 16.3044C19.2546 16.3078 19.2546 16.3111 19.2546 16.3145C19.2546 16.3179 19.2546 16.3213 19.2546 16.3247C19.2546 16.328 19.2546 16.3314 19.2546 16.3348C19.2546 16.3382 19.2546 16.3416 19.2546 16.345C19.2546 16.3484 19.2546 16.3518 19.2546 16.3552C19.2546 16.3586 19.2546 16.362 19.2546 16.3654C19.2546 16.3688 19.2546 16.3723 19.2546 16.3757C19.2546 16.3791 19.2546 16.3825 19.2546 16.386C19.2546 16.3894 19.2546 16.3928 19.2546 16.3963C19.2546 16.3997 19.2546 16.4031 19.2546 16.4066C19.2546 16.41 19.2546 16.4135 19.2546 16.4169C19.2546 16.4204 19.2546 16.4238 19.2546 16.4273C19.2546 16.4308 19.2546 16.4342 19.2546 16.4377C19.2546 16.4411 19.2546 16.4446 19.2546 16.4481C19.2546 16.4516 19.2546 16.455 19.2546 16.4585C19.2546 16.462 19.2546 16.4655 19.2546 16.469C19.2546 16.4725 19.2546 16.476 19.2546 16.4794C19.2546 16.4829 19.2546 16.4864 19.2546 16.4899C19.2546 16.4934 19.2546 16.4969 19.2546 16.5005C19.2546 16.504 19.2546 16.5075 19.2546 16.511C19.2546 16.5145 19.2546 16.518 19.2546 16.5215C19.2546 16.5251 19.2546 16.5286 19.2546 16.5321C19.2546 16.5356 19.2546 16.5392 19.2546 16.5427C19.2546 16.5462 19.2546 16.5498 19.2546 16.5533C19.2546 16.5569 19.2546 16.5604 19.2546 16.564C19.2546 16.5675 19.2546 16.5711 19.2546 16.5746C19.2546 16.5782 19.2546 16.5817 19.2546 16.5853C19.2546 16.5888 19.2546 16.5924 19.2546 16.596C19.2546 16.5995 19.2546 16.6031 19.2546 16.6067C19.2546 16.6103 19.2546 16.6138 19.2546 16.6174C19.2546 16.621 19.2546 16.6246 19.2546 16.6282C19.2546 16.6318 19.2546 16.6353 19.2546 16.6389C19.2546 16.6425 19.2546 16.6461 19.2546 16.6497C19.2546 16.6533 19.2546 16.6569 19.2546 16.6605C19.2546 16.6641 19.2546 16.6677 19.2546 16.6713C19.2546 16.6749 19.2546 16.6786 19.2546 16.6822C19.2546 16.6858 19.2546 16.6894 19.2546 16.693C19.2546 16.6967 19.2546 16.7003 19.2546 16.7039C19.2546 16.7075 19.2546 16.7112 19.2546 16.7148C19.2546 16.7184 19.2546 16.7221 19.2546 16.7257C19.2546 16.7293 19.2546 16.733 19.2546 16.7366C19.2546 16.7403 19.2546 16.7439 19.2546 16.7476C19.2546 16.7512 19.2546 16.7549 19.2546 16.7585C19.2546 16.7622 19.2546 16.7658 19.2546 16.7695C19.2546 16.7731 19.2546 16.7768 19.2546 16.7805C19.2546 16.7841 19.2546 16.7878 19.2546 16.7915C19.2546 16.7951 19.2546 16.7988 19.2546 16.8025C19.2546 16.8062 19.2546 16.8098 19.2546 16.8135C19.2546 16.8172 19.2546 16.8209 19.2546 16.8246C19.2546 16.8282 19.2546 16.8319 19.2546 16.8356C19.2546 16.8393 19.2546 16.843 19.2546 16.8467C19.2546 16.8504 19.2546 16.8541 19.2546 16.8578C19.2546 16.8615 19.2546 16.8652 19.2546 16.8689C19.2546 16.8726 19.2546 16.8763 19.2546 16.88C19.2546 16.8837 19.2546 16.8874 19.2546 16.8911C19.2546 16.8948 19.2546 16.8986 19.2546 16.9023C19.2546 16.906 19.2546 16.9097 19.2546 16.9134C19.2546 16.9172 19.2546 16.9209 19.2546 16.9246C19.2546 16.9283 19.2546 16.9321 19.2546 16.9358C19.2546 16.9395 19.2546 16.9433 19.2546 16.947C19.2546 16.9507 19.2546 16.9545 19.2546 16.9582C19.2546 16.9619 19.2546 16.9657 19.2546 16.9694C19.2546 16.9732 19.2546 16.9769 19.2546 16.9807C19.2546 16.9844 19.2546 16.9882 19.2546 16.9919C19.2546 16.9957 19.2546 16.9994 19.2546 17.0032C19.2546 17.0069 19.2546 17.0107 19.2546 17.0144C19.2546 17.0182 19.2546 17.0219 19.2546 17.0257C19.2546 17.0295 19.2546 17.0332 19.2546 17.037C19.2546 17.0408 19.2546 17.0445 19.2546 17.0483C19.2546 17.0521 19.2546 17.0559 19.2546 17.0596C19.2546 17.0634 19.2546 17.0672 19.2546 17.071C19.2546 17.0747 19.2546 17.0785 19.2546 17.0823C19.2546 17.0861 19.2546 17.0898 19.2546 17.0936C19.2546 17.0974 19.2546 17.1012 19.2546 17.105C19.2546 17.1088 19.2546 17.1126 19.2546 17.1164C19.2546 17.1201 19.2546 17.1239 19.2546 17.1277C19.2546 17.1315 19.2546 17.1353 19.2546 17.1391C19.2546 17.1429 19.2546 17.1467 19.2546 17.1505C19.2546 17.1543 19.2546 17.1581 19.2546 17.1619C19.2546 17.1657 19.2546 17.1695 19.2546 17.1733C19.2546 17.1771 19.2546 17.1809 19.2546 17.1848C19.2546 17.1886 19.2546 17.1924 19.2546 17.1962C19.2546 17.2 19.2546 17.2038 19.2546 17.2076C19.2546 17.2114 19.2546 17.2153 19.2546 17.2191C19.2546 17.2229 19.2546 17.2267 19.2546 17.2305C19.2546 17.2343 19.2546 17.2382 19.2546 17.242C19.2546 17.2458 19.2546 17.2496 19.2546 17.2535C19.2546 17.2573 19.2546 17.2611 19.2546 17.2649C19.2546 17.2688 19.2546 17.2726 19.2546 17.2764C19.2546 17.2803 19.2546 17.2841 19.2546 17.2879C19.2546 17.2917 19.2546 17.2956 19.2546 17.2994C19.2546 17.3033 19.2546 17.3071 19.2546 17.3109C19.2546 17.3148 19.2546 17.3186 19.2546 17.3224C19.2546 17.3263 19.2546 17.3301 19.2546 17.334C19.2546 17.3378 19.2546 17.3416 19.2546 17.3455C19.2546 17.3493 19.2546 17.3532 19.2546 17.357C19.2546 17.3609 19.2546 17.3647 19.2546 17.3685C19.2546 17.3724 19.2546 17.3762 19.2546 17.3801C19.2546 17.3839 19.2546 17.3878 19.2546 17.3916C19.2546 17.3955 19.2546 17.3993 19.2546 17.4032C19.2546 17.407 19.2546 17.4109 19.2546 17.4147C19.2546 17.4186 19.2546 17.4225 19.2546 17.4263C19.2546 17.4302 19.2546 17.434 19.2546 17.4379C19.2546 17.4417 19.2546 17.4456 19.2546 17.4494C19.2546 17.4533 19.2546 17.4572 19.2546 17.461C19.2546 17.4649 19.2546 17.4687 19.2546 17.4726C19.2546 17.4765 19.2546 17.4803 19.2546 17.4842C19.2546 17.488 19.2546 17.4919 19.2546 17.4958C19.2546 17.4996 19.2546 17.5035 19.2546 17.5074C19.2546 17.5112 19.2546 17.5151 19.2546 17.519C19.2546 17.5228 19.2546 17.5267 19.2546 17.5306C19.2546 17.5344 19.2546 17.5383 19.2546 17.5422C19.2546 17.546 19.2546 17.5499 19.2546 17.5538C19.2546 17.5576 19.2546 17.5615 19.2546 17.5654C19.2546 17.5692 19.2546 17.5731 19.2546 17.577C19.2546 17.5808 19.2546 17.5847 19.2546 17.5886C19.2546 17.5924 19.2546 17.5963 19.2546 17.6002C19.2546 17.6041 19.2546 17.6079 19.2546 17.6118C19.2546 17.6157 19.2546 17.6195 19.2546 17.6234C19.2546 17.6273 19.2546 17.6312 19.2546 17.635C19.2546 17.6389 19.2546 17.6428 19.2546 17.6466C19.2546 17.6505 19.2546 17.6544 19.2546 17.6583C19.2546 17.6621 19.2546 17.666 19.2546 17.6699C19.2546 17.6737 19.2546 17.6776 19.2546 17.6815C19.2546 17.6854 19.2546 17.6892 19.2546 17.6931C19.2546 17.697 19.2546 17.7009 19.2546 17.7047C19.2546 17.7086 19.2546 17.7125 19.2546 17.7163C19.2546 17.7202 19.2546 17.7241 19.2546 17.728C19.2546 17.7318 19.2546 17.7357 19.2546 17.7396C19.2546 17.7435 19.2546 17.7473 19.2546 17.7512C19.2546 17.7551 19.2546 17.7589 19.2546 17.7628C19.2546 17.7667 19.2546 17.7706 19.2546 17.7744C19.2546 17.7783 19.2546 17.7822 19.2546 17.786C19.2546 17.7899 19.2546 17.7938 19.2546 17.7977C19.2546 17.8015 19.2546 17.8054 19.2546 17.8093C19.2546 17.8131 19.2546 17.817 19.2546 17.8209C19.2546 17.8247 19.2546 17.8286 19.2546 17.8325C19.2546 17.8364 19.2546 17.8402 19.2546 17.8441C19.2546 17.848 19.2546 17.8518 19.2546 17.8557C19.2546 17.8596 19.2546 17.8634 19.2546 17.8673C19.2546 17.8712 19.2546 17.875 19.2546 17.8789C19.2546 17.8828 19.2546 17.8866 19.2546 17.8905C19.2546 17.8943 19.2546 17.8982 19.2546 17.9021C19.2546 17.9059 19.2546 17.9098 19.2546 17.9137C19.2546 17.9175 19.2546 17.9214 19.2546 17.9252C19.2546 17.9291 19.2546 17.933 19.2546 17.9368C19.2546 17.9407 19.2546 17.9445 19.2546 17.9484C19.2546 17.9523 19.2546 17.9561 19.2546 17.96C19.2546 17.9638 19.2546 17.9677 19.2546 17.9715C19.2546 17.9754 19.2546 17.9793 19.2546 17.9831C19.2546 17.987 19.2546 17.9908 19.2546 17.9947C19.2546 17.9985 19.2546 18.0024 19.2546 18.0062C19.2546 18.0101 19.2546 18.0139 19.2546 18.0178C19.2546 18.0216 19.2546 18.0255 19.2546 18.0293C19.2546 18.0332 19.2546 18.037 19.2546 18.0409C19.2546 18.0447 19.2546 18.0485 19.2546 18.0524C19.2546 18.0562 19.2546 18.0601 19.2546 18.0639C19.2546 18.0678 19.2546 18.0716 19.2546 18.0754C19.2546 18.0793 19.2546 18.0831 19.2546 18.087C19.2546 18.0908 19.2546 18.0946 19.2546 18.0985C19.2546 18.1023 19.2546 18.1061 19.2546 18.11C19.2546 18.1138 19.2546 18.1176 19.2546 18.1215C19.2546 18.1253 19.2546 18.1291 19.2546 18.1329C19.2546 18.1368 19.2546 18.1406 19.2546 18.1444C19.2546 18.1483 19.2546 18.1521 19.2546 18.1559C19.2546 18.1597 19.2546 18.1635 19.2546 18.1674C19.2546 18.1712 19.2546 18.175 19.2546 18.1788C19.2546 18.1826 19.2546 18.1865 19.2546 18.1903C19.2546 18.1941 19.2546 18.1979 19.2546 18.2017C19.2546 18.2055 19.2546 18.2093 19.2546 18.2132C19.2546 18.217 19.2546 18.2208 19.2546 18.2246C19.2546 18.2284 19.2546 18.2322 19.2546 18.236C19.2546 18.2398 19.2546 18.2436 19.2546 18.2474C19.2546 18.2512 19.2546 18.255 19.2546 18.2588C19.2546 18.2626 19.2546 18.2664 19.2546 18.2702C19.2546 18.274 19.2546 18.2778 19.2546 18.2816C19.2546 18.2854 19.2546 18.2892 19.2546 18.2929C19.2546 18.2967 19.2546 18.3005 19.2546 18.3043C19.2546 18.3081 19.2546 18.3119 19.2546 18.3156C19.2546 18.3194 19.2546 18.3232 19.2546 18.327C19.2546 18.3308 19.2546 18.3345 19.2546 18.3383C19.2546 18.3421 19.2546 18.3459 19.2546 18.3496C19.2546 18.3534 19.2546 18.3572 19.2546 18.3609C19.2546 18.3647 19.2546 18.3685 19.2546 18.3722C19.2546 18.376 19.2546 18.3798 19.2546 18.3835C19.2546 18.3873 19.2546 18.391 19.2546 18.3948C19.2546 18.3986 19.2546 18.4023 19.2546 18.4061C19.2546 18.4098 19.2546 18.4136 19.2546 18.4173C19.2546 18.4211 19.2546 18.4248 19.2546 18.4286C19.2546 18.4323 19.2546 18.436 19.2546 18.4398C19.2546 18.4435 19.2546 18.4473 19.2546 18.451C19.2546 18.4547 19.2546 18.4585 19.2546 18.4622C19.2546 18.4659 19.2546 18.4697 19.2546 18.4734C19.2546 18.4771 19.2546 18.4808 19.2546 18.4846C19.2546 18.4883 19.2546 18.492 19.2546 18.4957C19.2546 18.4994 19.2546 18.5032 19.2546 18.5069C19.2546 18.5106 19.2546 18.5143 19.2546 18.518C19.2546 18.5217 19.2546 18.5254 19.2546 18.5291C19.2546 18.5328 19.2546 18.5365 19.2546 18.5402C19.2546 18.5439 19.2546 18.5476 19.2546 18.5513C19.2546 18.555 19.2546 18.5587 19.2546 18.5624C19.2546 18.5661 19.2546 18.5698 19.2546 18.5735C19.2546 18.5772 19.2546 18.5809 19.2546 18.5845C19.2546 18.5882 19.2546 18.5919 19.2546 18.5956C19.2546 18.5993 19.2546 18.6029 19.2546 18.6066C19.2546 18.6103 19.2546 18.6139 19.2546 18.6176C19.2546 18.6213 19.2546 18.6249 19.2546 18.6286C19.2546 18.6323 19.2546 18.6359 19.2546 18.6396C19.2546 18.6432 19.2546 18.6469 19.2546 18.6505C19.2546 18.6542 19.2546 18.6578 19.2546 18.6615C19.2546 18.6651 19.2546 18.6688 19.2546 18.6724C19.2546 18.676 19.2546 18.6797 19.2546 18.6833C19.2546 18.6869 19.2546 18.6906 19.2546 18.6942C19.2546 18.6978 19.2546 18.7015 19.2546 18.7051C19.2546 18.7087 19.2546 18.7123 19.2546 18.7159C19.2546 18.7196 19.2546 18.7232 19.2546 18.7268C19.2546 18.7304 19.2546 18.734 19.2546 18.7376C19.2546 18.7412 19.2546 18.7448 19.2546 18.7484C19.2546 18.752 19.2546 18.7556 19.2546 18.7592C19.2546 18.7628 19.2546 18.7664 19.2546 18.77C19.2546 18.7736 19.2546 18.7772 19.2546 18.7807C19.2546 18.7843 19.2546 18.7879 19.2546 18.7915C19.2546 18.795 19.2546 18.7986 19.2546 18.8022C19.2546 18.8058 19.2546 18.8093 19.2546 18.8129C19.2546 18.8165 19.2546 18.82 19.2546 18.8236C19.2546 18.8271 19.2546 18.8307 19.2546 18.8342C19.2546 18.8378 19.2546 18.8413 19.2546 18.8449C19.2546 18.8484 19.2546 18.852 19.2546 18.8555C19.2546 18.859 19.2546 18.8626 19.2546 18.8661C19.2546 18.8696 19.2546 18.8732 19.2546 18.8767C19.2546 18.8802 19.2546 18.8837 19.2546 18.8872C19.2546 18.8908 19.2546 18.8943 19.2546 18.8978C19.2546 18.9013 19.2546 18.9048 19.2546 18.9083C19.2546 18.9118 19.2546 18.9153 19.2546 18.9188C19.2546 18.9223 19.2546 18.9258 19.2546 18.9293C19.2546 18.9328 19.2546 18.9363 19.2546 18.9397C19.2546 18.9432 19.2546 18.9467 19.2546 18.9502C19.2546 18.9537 19.2546 18.9571 19.2546 18.9606C19.2546 18.9641 19.2546 18.9675 19.2546 18.971C19.2546 18.9745 19.2546 18.9779 19.2546 18.9814C19.2546 18.9848 19.2546 18.9883 19.2546 18.9917C19.2546 18.9952 19.2546 18.9986 19.2546 19.0021C19.2546 19.0055 19.2546 19.0089 19.2546 19.0124C19.2546 19.0158 19.2546 19.0192 19.2546 19.0226C19.2546 19.0261 19.2546 19.0295 19.2546 19.0329C19.2546 19.0363 19.2546 19.0397 19.2546 19.0431C19.2546 19.0466 19.2546 19.05 19.2546 19.0534C19.2546 19.0568 19.2546 19.0602 19.2546 19.0635C19.2546 19.0669 19.2546 19.0703 19.2546 19.0737C19.2546 19.0771 19.2546 19.0805 19.2546 19.0839C19.2546 19.0872 19.2546 19.0906 19.2546 19.094C19.2546 19.0974 19.2546 19.1007 19.2546 19.1041C19.2546 19.1074 19.2546 19.1108 19.2546 19.1142C19.2546 19.1175 19.2546 19.1209 19.2546 19.1242C19.2546 19.1275 19.2546 19.1309 19.2546 19.1342C19.2546 19.1376 19.2546 19.1409 19.2546 19.1442C19.2546 19.1476 19.2546 19.1509 19.2546 19.1542C19.2546 19.1575 19.2546 19.1608 19.2546 19.1641C19.2546 19.1675 19.2546 19.1708 19.2546 19.1741C19.2546 19.1774 19.2546 19.1807 19.2546 19.184C19.2546 19.1873 19.2546 19.1906 19.2546 19.1938C19.2546 19.1971 19.2546 19.2004 19.2546 19.2037C19.2546 19.207 19.2546 19.2102 19.2546 19.2135C19.2546 19.2168 19.2546 19.22 19.2546 19.2233C19.2546 19.2266 19.2546 19.2298 19.2546 19.2331C19.2546 19.2363 19.2546 19.2396 19.2546 19.2428C19.2546 19.246 19.2546 19.2493 19.2546 19.2525C19.2546 19.2557 19.2546 19.259 19.2546 19.2622C19.2546 19.2654 19.2546 19.2686 19.2546 19.2719C19.2546 19.2751 19.2546 19.2783 19.2546 19.2815C19.2546 19.2847 19.2546 19.2879 19.2546 19.2911C19.2546 19.2943 19.2546 19.2975 19.2546 19.3007C19.2546 19.3039 19.2546 19.307 19.2546 19.3102C19.2546 19.3134 19.2546 19.3166 19.2546 19.3197C19.2546 19.3229 19.2546 19.3261 19.2546 19.3292C19.2546 19.3324 19.2546 19.3355 19.2546 19.3387C19.2546 19.3418 19.2546 19.345 19.2546 19.3481C19.2546 19.3513 19.2546 19.3544 19.2546 19.3575C19.2546 19.3606 19.2546 19.3638 19.2546 19.3669C19.2546 19.37 19.2546 19.3731 19.2546 19.3762C19.2546 19.3793 19.2546 19.3825 19.2546 19.3856C19.2546 19.3887 19.2546 19.3917 19.2546 19.3948C19.2546 19.3979 19.2546 19.401 19.2546 19.4041C19.2546 19.4072 19.2546 19.4102 19.2546 19.4133C19.2546 19.4164 19.2546 19.4195 19.2546 19.4225C19.2546 19.4256 19.2546 19.4286 19.2546 19.4317C19.2546 19.4347 19.2546 19.4378 19.2546 19.4408C19.2546 19.4438 19.2546 19.4469 19.2546 19.4499C19.2546 19.4529 19.2546 19.456 19.2546 19.459C19.2546 19.462 19.2546 19.465 19.2546 19.468H20.7546ZM20.34 14.3372L18.4867 13.4105L17.8158 14.7522L19.6692 15.6788L20.34 14.3372ZM14.1934 14.7522C15.3336 14.1821 16.6757 14.1821 17.8158 14.7522L18.4867 13.4105C16.9242 12.6293 15.0851 12.6293 13.5226 13.4105L14.1934 14.7522ZM16.0801 8.31771H3.20388V9.81771H16.0801V8.31771Z" fill="#E6EAF0"/>
</svg>
