<svg width="32" height="32" viewBox="0 0 32 32" fill="none" xmlns="http://www.w3.org/2000/svg">
<g clip-path="url(#clip0_40000043_10138)">
<path d="M6.66667 16H4L16 4L28 16H25.3333" stroke="#E6EAF0" stroke-width="1.5" stroke-linecap="round" stroke-linejoin="round"/>
<path d="M6.66406 16V25.3333C6.66406 26.0406 6.94501 26.7189 7.44511 27.219C7.94521 27.719 8.62349 28 9.33073 28H22.6641C23.3713 28 24.0496 27.719 24.5497 27.219C25.0498 26.7189 25.3307 26.0406 25.3307 25.3333V16" stroke="#E6EAF0" stroke-width="1.5" stroke-linecap="round" stroke-linejoin="round"/>
<path d="M12 28.0026V20.0026C12 19.2954 12.281 18.6171 12.781 18.117C13.2811 17.6169 13.9594 17.3359 14.6667 17.3359H17.3333C18.0406 17.3359 18.7189 17.6169 19.219 18.117C19.719 18.6171 20 19.2954 20 20.0026V28.0026" stroke="#E6EAF0" stroke-width="1.5" stroke-linecap="round" stroke-linejoin="round"/>
</g>
<defs>
<clipPath id="clip0_40000043_10138">
<rect width="32" height="32" fill="white"/>
</clipPath>
</defs>
</svg>
