<svg width="32" height="32" viewBox="0 0 32 32" fill="none" xmlns="http://www.w3.org/2000/svg">
<path d="M23.2031 16.2323L27.067 18.2129C27.7921 18.5846 27.7921 19.621 27.067 19.9927L16.4593 25.43C16.1729 25.5767 15.8334 25.5767 15.547 25.43L4.93926 19.9927C4.21412 19.621 4.21412 18.5846 4.93926 18.2129L8.90548 16.1799M4.93926 13.7868L15.547 19.2241C15.8334 19.3709 16.1729 19.3709 16.4593 19.2241L27.067 13.7868C27.7921 13.4151 27.7921 12.3787 27.067 12.007L16.4593 6.56975C16.1729 6.42295 15.8334 6.42295 15.547 6.56975L4.93926 12.007C4.21412 12.3787 4.21413 13.4151 4.93926 13.7868Z" stroke="#E6EAF0" stroke-width="1.5" stroke-linecap="round" stroke-linejoin="round"/>
</svg>
