<svg width="32" height="32" viewBox="0 0 32 32" fill="none" xmlns="http://www.w3.org/2000/svg">
<path d="M11.6721 5.67135L13.4663 3.09288C13.6533 2.82423 13.9599 2.66406 14.2872 2.66406H17.0415C17.3676 2.66406 17.6732 2.82305 17.8603 3.09006L19.6369 5.62449M11.6721 5.67135C11.2096 6.33114 10.4409 6.65444 9.62497 6.59681M11.6721 5.67135C11.2074 6.32956 10.4409 6.65712 9.62497 6.59681M9.62497 6.59681L6.45584 6.39785C6.135 6.3777 5.82403 6.51304 5.62011 6.76157L3.87553 8.88779C3.65933 9.15129 3.59223 9.50676 3.69749 9.83094L4.62826 12.6975M4.62826 12.6975C4.74683 13.0819 4.762 13.4938 4.67715 13.8827M4.62826 12.6975C4.74851 13.0812 4.76312 13.4922 4.67659 13.8867M4.67715 13.8827C4.59117 14.2671 4.40686 14.6301 4.1332 14.924M4.67715 13.8827L4.67659 13.8867M4.1332 14.924L2.02981 17.1862C1.80141 17.4318 1.71138 17.7756 1.79006 18.1017L2.41065 20.6734C2.48908 20.9984 2.72472 21.2627 3.03863 21.3778L5.92857 22.4369C6.30844 22.584 6.63661 22.8229 6.88498 23.1239M4.1332 14.924C4.40854 14.6325 4.59117 14.2707 4.67659 13.8867M6.88498 23.1239C7.13167 23.4257 7.29969 23.7901 7.36487 24.1845M6.88498 23.1239C7.13392 23.4257 7.3025 23.7891 7.36487 24.1845M6.88498 23.1239L6.88105 23.1195C6.86475 23.0998 6.84733 23.0792 6.83047 23.0601M7.36487 24.1845L7.85681 27.2063C7.91008 27.5335 8.12203 27.8131 8.42271 27.9527L10.908 29.1066C11.1991 29.2417 11.5373 29.2289 11.8174 29.0723L14.5177 27.5615M14.5177 27.5615C14.8712 27.363 15.2657 27.2634 15.6601 27.2629M14.5177 27.5615C14.6576 27.4819 14.8043 27.4183 14.9549 27.3706C15.1836 27.2982 15.4219 27.2624 15.6601 27.2629M15.6601 27.2629C15.8652 27.2633 16.0703 27.2905 16.2704 27.3441C16.4564 27.3939 16.6373 27.4665 16.8087 27.5615M15.6601 27.2629C16.0563 27.2624 16.453 27.3619 16.8087 27.5615M16.8087 27.5615L19.6292 29.0884C19.9105 29.2406 20.2477 29.2492 20.5363 29.1113L23.0093 27.9302C23.3089 27.7871 23.5179 27.5046 23.5672 27.1763L24.0088 24.2347M24.0088 24.2347C24.0711 23.838 24.2369 23.4709 24.483 23.1665M24.0088 24.2347C24.0689 23.8371 24.2358 23.4706 24.483 23.1665M24.483 23.1665C24.7275 22.8651 25.0517 22.625 25.4293 22.4765M24.483 23.1665C24.7269 22.8639 25.05 22.6231 25.4293 22.4765M25.4293 22.4765L28.3441 21.3342C28.652 21.2135 28.8804 20.9483 28.9541 20.6258L29.5467 18.0314C29.6201 17.7097 29.5303 17.3726 29.3064 17.1302L27.1938 14.8427M27.1938 14.8427C26.9151 14.5478 26.7207 14.1955 26.6263 13.821M27.1938 14.8427C27.0629 14.7049 26.9505 14.5543 26.8589 14.3947C26.7544 14.2134 26.6763 14.0204 26.6263 13.821M26.6263 13.821C26.5335 13.4493 26.5392 13.0554 26.6566 12.6741L27.5724 9.73867C27.6728 9.41687 27.6043 9.06614 27.3902 8.80576L25.683 6.7293C25.4767 6.47841 25.1614 6.34333 24.8375 6.36706L21.7009 6.59681M21.7009 6.59681C21.2952 6.62545 20.8962 6.54817 20.5411 6.38191M21.7009 6.59681C21.2946 6.6271 20.8962 6.5492 20.5411 6.38191M20.5411 6.38191C20.1837 6.21353 19.8701 5.9546 19.6369 5.62449M20.5411 6.38191C20.1831 6.21415 19.869 5.9559 19.6369 5.62449M4.67659 13.8867L4.67771 13.8809M20.1786 16.0115C20.1786 18.4982 18.1175 20.5139 15.5753 20.5139C13.0331 20.5139 10.9719 18.4982 10.9719 16.0115C10.9719 13.5249 13.0331 11.5092 15.5753 11.5092C18.1175 11.5092 20.1786 13.5249 20.1786 16.0115Z" stroke="#E6EAF0" stroke-width="2"/>
</svg>
