<svg width="32" height="32" viewBox="0 0 32 32" fill="none" xmlns="http://www.w3.org/2000/svg">
<g clip-path="url(#clip0_40000043_10179)">
<path d="M15.9985 28C13.9228 27.4616 11.9764 26.5114 10.2752 25.206C8.57396 23.9005 7.15249 22.2664 6.09527 20.4007C5.03805 18.535 4.36666 16.4759 4.12098 14.3456C3.8753 12.2153 4.06035 10.0574 4.66514 8C8.81918 8.19009 12.884 6.75543 15.9985 4C19.1129 6.75543 23.1778 8.19009 27.3318 8C28.2321 11.0623 28.1959 14.3238 27.2278 17.3653" stroke="#E6EAF0" stroke-width="1.5" stroke-linecap="round" stroke-linejoin="round"/>
<path d="M26.6641 27.9974L29.3307 25.3307L26.6641 22.6641" stroke="#E6EAF0" stroke-width="1.5" stroke-linecap="round" stroke-linejoin="round"/>
<path d="M22.6667 22.6641L20 25.3307L22.6667 27.9974" stroke="#E6EAF0" stroke-width="1.5" stroke-linecap="round" stroke-linejoin="round"/>
</g>
<defs>
<clipPath id="clip0_40000043_10179">
<rect width="32" height="32" fill="white"/>
</clipPath>
</defs>
</svg>
